<svg width="600" height="76" viewBox="0 0 600 76" fill="none" xmlns="http://www.w3.org/2000/svg">
<path fill-rule="evenodd" clip-rule="evenodd" d="M14 0C6.26801 0 0 6.26802 0 14V41.0585C0 41.9694 0.0869936 42.86 0.253126 43.7224C0.0861557 44.9095 0 46.1205 0 47.3503C0 62.5543 13.1681 74.8795 29.4117 74.8795C41.5392 74.8795 51.9524 68.0093 56.451 58.2001C60.9276 68.0562 71.3668 74.9676 83.5306 74.9676C95.657 74.9676 106.069 68.0986 110.569 58.2909C115.046 68.1455 125.484 75.0556 137.647 75.0556C149.773 75.0556 160.186 68.1866 164.685 58.3789C169.162 68.2336 179.601 75.1437 191.763 75.1437C203.891 75.1437 214.304 68.2735 218.803 58.4644C223.279 68.3204 233.718 75.2317 245.882 75.2317C258.009 75.2317 268.422 68.3619 272.921 58.5531C277.398 68.4088 287.837 75.3198 300 75.3198C312.127 75.3198 322.539 68.4504 327.039 58.6422C331.516 68.4973 341.954 75.4078 354.117 75.4078C366.245 75.4078 376.658 68.5376 381.157 58.7284C385.633 68.5845 396.072 75.4959 408.236 75.4959C420.362 75.4959 430.775 68.6269 435.274 58.8192C439.751 68.6738 450.19 75.5839 462.352 75.5839C474.48 75.5839 484.893 68.7137 489.392 58.9045C493.868 68.7606 504.307 75.672 516.471 75.672C528.598 75.672 539.011 68.8025 543.51 58.9943C547.987 68.8494 558.425 75.76 570.588 75.76C586.832 75.76 600 63.4347 600 48.2308C600 46.8245 599.887 45.4429 599.67 44.0934C599.886 43.1162 600 42.1006 600 41.0585V14C600 6.26801 593.732 0 586 0H14Z" fill="#06681B"/>
</svg>
